<?xml version="1.0" encoding="utf-8" standalone="no"?>
<!DOCTYPE svg PUBLIC "-//W3C//DTD SVG 1.1//EN"
  "http://www.w3.org/Graphics/SVG/1.1/DTD/svg11.dtd">
<svg xmlns:xlink="http://www.w3.org/1999/xlink" width="274.997344pt" height="248.182779pt" viewBox="0 0 274.997344 248.182779" xmlns="http://www.w3.org/2000/svg" version="1.1">
 <metadata>
  <rdf:RDF xmlns:dc="http://purl.org/dc/elements/1.1/" xmlns:cc="http://creativecommons.org/ns#" xmlns:rdf="http://www.w3.org/1999/02/22-rdf-syntax-ns#">
   <cc:Work>
    <dc:type rdf:resource="http://purl.org/dc/dcmitype/StillImage"/>
    <dc:date>2026-04-25T15:30:23.149561</dc:date>
    <dc:format>image/svg+xml</dc:format>
    <dc:creator>
     <cc:Agent>
      <dc:title>Matplotlib v3.10.6, https://matplotlib.org/</dc:title>
     </cc:Agent>
    </dc:creator>
   </cc:Work>
  </rdf:RDF>
 </metadata>
 <defs>
  <style type="text/css">*{stroke-linejoin: round; stroke-linecap: butt}</style>
 </defs>
 <g id="figure_1">
  <g id="patch_1">
   <path d="M 0 248.182779 
L 274.997344 248.182779 
L 274.997344 0 
L 0 0 
z
" style="fill: #ffffff"/>
  </g>
  <g id="axes_1">
   <g id="patch_2">
    <path d="M 39.330625 171.115325 
L 256.930625 171.115325 
L 256.930625 22.318125 
L 39.330625 22.318125 
z
" style="fill: #ffffff"/>
   </g>
   <g id="line2d_1">
    <path d="M 148.130625 171.115325 
L 148.130625 22.318125 
" clip-path="url(#p2f753c3780)" style="fill: none; stroke-dasharray: 3.33,1.44; stroke-dashoffset: 0; stroke: #bbbbbb; stroke-width: 0.9"/>
   </g>
   <g id="matplotlib.axis_1">
    <g id="xtick_1">
     <g id="line2d_2">
      <path d="M 43.51524 171.115325 
L 43.51524 22.318125 
" clip-path="url(#p2f753c3780)" style="fill: none; stroke: #b0b0b0; stroke-opacity: 0.22; stroke-width: 0.6; stroke-linecap: square"/>
     </g>
     <g id="line2d_3">
      <defs>
       <path id="ma8f0be2795" d="M 0 0 
L 0 3.5 
" style="stroke: #000000; stroke-width: 0.8"/>
      </defs>
      <g>
       <use xlink:href="#ma8f0be2795" x="43.51524" y="171.115325" style="stroke: #000000; stroke-width: 0.8"/>
      </g>
     </g>
     <g id="text_1">
      <!-- 0.0 -->
      <g transform="translate(36.358834 184.953919) scale(0.09 -0.09)">
       <defs>
        <path id="DejaVuSans-30" d="M 2034 4250 
Q 1547 4250 1301 3770 
Q 1056 3291 1056 2328 
Q 1056 1369 1301 889 
Q 1547 409 2034 409 
Q 2525 409 2770 889 
Q 3016 1369 3016 2328 
Q 3016 3291 2770 3770 
Q 2525 4250 2034 4250 
z
M 2034 4750 
Q 2819 4750 3233 4129 
Q 3647 3509 3647 2328 
Q 3647 1150 3233 529 
Q 2819 -91 2034 -91 
Q 1250 -91 836 529 
Q 422 1150 422 2328 
Q 422 3509 836 4129 
Q 1250 4750 2034 4750 
z
" transform="scale(0.015625)"/>
        <path id="DejaVuSans-2e" d="M 684 794 
L 1344 794 
L 1344 0 
L 684 0 
L 684 794 
z
" transform="scale(0.015625)"/>
       </defs>
       <use xlink:href="#DejaVuSans-30"/>
       <use xlink:href="#DejaVuSans-2e" transform="translate(63.623047 0)"/>
       <use xlink:href="#DejaVuSans-30" transform="translate(95.410156 0)"/>
      </g>
     </g>
    </g>
    <g id="xtick_2">
     <g id="line2d_4">
      <path d="M 85.361394 171.115325 
L 85.361394 22.318125 
" clip-path="url(#p2f753c3780)" style="fill: none; stroke: #b0b0b0; stroke-opacity: 0.22; stroke-width: 0.6; stroke-linecap: square"/>
     </g>
     <g id="line2d_5">
      <g>
       <use xlink:href="#ma8f0be2795" x="85.361394" y="171.115325" style="stroke: #000000; stroke-width: 0.8"/>
      </g>
     </g>
     <g id="text_2">
      <!-- 0.2 -->
      <g transform="translate(78.204988 184.953919) scale(0.09 -0.09)">
       <defs>
        <path id="DejaVuSans-32" d="M 1228 531 
L 3431 531 
L 3431 0 
L 469 0 
L 469 531 
Q 828 903 1448 1529 
Q 2069 2156 2228 2338 
Q 2531 2678 2651 2914 
Q 2772 3150 2772 3378 
Q 2772 3750 2511 3984 
Q 2250 4219 1831 4219 
Q 1534 4219 1204 4116 
Q 875 4013 500 3803 
L 500 4441 
Q 881 4594 1212 4672 
Q 1544 4750 1819 4750 
Q 2544 4750 2975 4387 
Q 3406 4025 3406 3419 
Q 3406 3131 3298 2873 
Q 3191 2616 2906 2266 
Q 2828 2175 2409 1742 
Q 1991 1309 1228 531 
z
" transform="scale(0.015625)"/>
       </defs>
       <use xlink:href="#DejaVuSans-30"/>
       <use xlink:href="#DejaVuSans-2e" transform="translate(63.623047 0)"/>
       <use xlink:href="#DejaVuSans-32" transform="translate(95.410156 0)"/>
      </g>
     </g>
    </g>
    <g id="xtick_3">
     <g id="line2d_6">
      <path d="M 127.207548 171.115325 
L 127.207548 22.318125 
" clip-path="url(#p2f753c3780)" style="fill: none; stroke: #b0b0b0; stroke-opacity: 0.22; stroke-width: 0.6; stroke-linecap: square"/>
     </g>
     <g id="line2d_7">
      <g>
       <use xlink:href="#ma8f0be2795" x="127.207548" y="171.115325" style="stroke: #000000; stroke-width: 0.8"/>
      </g>
     </g>
     <g id="text_3">
      <!-- 0.4 -->
      <g transform="translate(120.051142 184.953919) scale(0.09 -0.09)">
       <defs>
        <path id="DejaVuSans-34" d="M 2419 4116 
L 825 1625 
L 2419 1625 
L 2419 4116 
z
M 2253 4666 
L 3047 4666 
L 3047 1625 
L 3713 1625 
L 3713 1100 
L 3047 1100 
L 3047 0 
L 2419 0 
L 2419 1100 
L 313 1100 
L 313 1709 
L 2253 4666 
z
" transform="scale(0.015625)"/>
       </defs>
       <use xlink:href="#DejaVuSans-30"/>
       <use xlink:href="#DejaVuSans-2e" transform="translate(63.623047 0)"/>
       <use xlink:href="#DejaVuSans-34" transform="translate(95.410156 0)"/>
      </g>
     </g>
    </g>
    <g id="xtick_4">
     <g id="line2d_8">
      <path d="M 169.053702 171.115325 
L 169.053702 22.318125 
" clip-path="url(#p2f753c3780)" style="fill: none; stroke: #b0b0b0; stroke-opacity: 0.22; stroke-width: 0.6; stroke-linecap: square"/>
     </g>
     <g id="line2d_9">
      <g>
       <use xlink:href="#ma8f0be2795" x="169.053702" y="171.115325" style="stroke: #000000; stroke-width: 0.8"/>
      </g>
     </g>
     <g id="text_4">
      <!-- 0.6 -->
      <g transform="translate(161.897296 184.953919) scale(0.09 -0.09)">
       <defs>
        <path id="DejaVuSans-36" d="M 2113 2584 
Q 1688 2584 1439 2293 
Q 1191 2003 1191 1497 
Q 1191 994 1439 701 
Q 1688 409 2113 409 
Q 2538 409 2786 701 
Q 3034 994 3034 1497 
Q 3034 2003 2786 2293 
Q 2538 2584 2113 2584 
z
M 3366 4563 
L 3366 3988 
Q 3128 4100 2886 4159 
Q 2644 4219 2406 4219 
Q 1781 4219 1451 3797 
Q 1122 3375 1075 2522 
Q 1259 2794 1537 2939 
Q 1816 3084 2150 3084 
Q 2853 3084 3261 2657 
Q 3669 2231 3669 1497 
Q 3669 778 3244 343 
Q 2819 -91 2113 -91 
Q 1303 -91 875 529 
Q 447 1150 447 2328 
Q 447 3434 972 4092 
Q 1497 4750 2381 4750 
Q 2619 4750 2861 4703 
Q 3103 4656 3366 4563 
z
" transform="scale(0.015625)"/>
       </defs>
       <use xlink:href="#DejaVuSans-30"/>
       <use xlink:href="#DejaVuSans-2e" transform="translate(63.623047 0)"/>
       <use xlink:href="#DejaVuSans-36" transform="translate(95.410156 0)"/>
      </g>
     </g>
    </g>
    <g id="xtick_5">
     <g id="line2d_10">
      <path d="M 210.899856 171.115325 
L 210.899856 22.318125 
" clip-path="url(#p2f753c3780)" style="fill: none; stroke: #b0b0b0; stroke-opacity: 0.22; stroke-width: 0.6; stroke-linecap: square"/>
     </g>
     <g id="line2d_11">
      <g>
       <use xlink:href="#ma8f0be2795" x="210.899856" y="171.115325" style="stroke: #000000; stroke-width: 0.8"/>
      </g>
     </g>
     <g id="text_5">
      <!-- 0.8 -->
      <g transform="translate(203.74345 184.953919) scale(0.09 -0.09)">
       <defs>
        <path id="DejaVuSans-38" d="M 2034 2216 
Q 1584 2216 1326 1975 
Q 1069 1734 1069 1313 
Q 1069 891 1326 650 
Q 1584 409 2034 409 
Q 2484 409 2743 651 
Q 3003 894 3003 1313 
Q 3003 1734 2745 1975 
Q 2488 2216 2034 2216 
z
M 1403 2484 
Q 997 2584 770 2862 
Q 544 3141 544 3541 
Q 544 4100 942 4425 
Q 1341 4750 2034 4750 
Q 2731 4750 3128 4425 
Q 3525 4100 3525 3541 
Q 3525 3141 3298 2862 
Q 3072 2584 2669 2484 
Q 3125 2378 3379 2068 
Q 3634 1759 3634 1313 
Q 3634 634 3220 271 
Q 2806 -91 2034 -91 
Q 1263 -91 848 271 
Q 434 634 434 1313 
Q 434 1759 690 2068 
Q 947 2378 1403 2484 
z
M 1172 3481 
Q 1172 3119 1398 2916 
Q 1625 2713 2034 2713 
Q 2441 2713 2670 2916 
Q 2900 3119 2900 3481 
Q 2900 3844 2670 4047 
Q 2441 4250 2034 4250 
Q 1625 4250 1398 4047 
Q 1172 3844 1172 3481 
z
" transform="scale(0.015625)"/>
       </defs>
       <use xlink:href="#DejaVuSans-30"/>
       <use xlink:href="#DejaVuSans-2e" transform="translate(63.623047 0)"/>
       <use xlink:href="#DejaVuSans-38" transform="translate(95.410156 0)"/>
      </g>
     </g>
    </g>
    <g id="xtick_6">
     <g id="line2d_12">
      <path d="M 252.74601 171.115325 
L 252.74601 22.318125 
" clip-path="url(#p2f753c3780)" style="fill: none; stroke: #b0b0b0; stroke-opacity: 0.22; stroke-width: 0.6; stroke-linecap: square"/>
     </g>
     <g id="line2d_13">
      <g>
       <use xlink:href="#ma8f0be2795" x="252.74601" y="171.115325" style="stroke: #000000; stroke-width: 0.8"/>
      </g>
     </g>
     <g id="text_6">
      <!-- 1.0 -->
      <g transform="translate(245.589603 184.953919) scale(0.09 -0.09)">
       <defs>
        <path id="DejaVuSans-31" d="M 794 531 
L 1825 531 
L 1825 4091 
L 703 3866 
L 703 4441 
L 1819 4666 
L 2450 4666 
L 2450 531 
L 3481 531 
L 3481 0 
L 794 0 
L 794 531 
z
" transform="scale(0.015625)"/>
       </defs>
       <use xlink:href="#DejaVuSans-31"/>
       <use xlink:href="#DejaVuSans-2e" transform="translate(63.623047 0)"/>
       <use xlink:href="#DejaVuSans-30" transform="translate(95.410156 0)"/>
      </g>
     </g>
    </g>
    <g id="text_7">
     <!-- Preference weight $w_1$ (weight on Obj 1) -->
     <g transform="translate(49.480625 198.425637) scale(0.1 -0.1)">
      <defs>
       <path id="DejaVuSans-50" d="M 1259 4147 
L 1259 2394 
L 2053 2394 
Q 2494 2394 2734 2622 
Q 2975 2850 2975 3272 
Q 2975 3691 2734 3919 
Q 2494 4147 2053 4147 
L 1259 4147 
z
M 628 4666 
L 2053 4666 
Q 2838 4666 3239 4311 
Q 3641 3956 3641 3272 
Q 3641 2581 3239 2228 
Q 2838 1875 2053 1875 
L 1259 1875 
L 1259 0 
L 628 0 
L 628 4666 
z
" transform="scale(0.015625)"/>
       <path id="DejaVuSans-72" d="M 2631 2963 
Q 2534 3019 2420 3045 
Q 2306 3072 2169 3072 
Q 1681 3072 1420 2755 
Q 1159 2438 1159 1844 
L 1159 0 
L 581 0 
L 581 3500 
L 1159 3500 
L 1159 2956 
Q 1341 3275 1631 3429 
Q 1922 3584 2338 3584 
Q 2397 3584 2469 3576 
Q 2541 3569 2628 3553 
L 2631 2963 
z
" transform="scale(0.015625)"/>
       <path id="DejaVuSans-65" d="M 3597 1894 
L 3597 1613 
L 953 1613 
Q 991 1019 1311 708 
Q 1631 397 2203 397 
Q 2534 397 2845 478 
Q 3156 559 3463 722 
L 3463 178 
Q 3153 47 2828 -22 
Q 2503 -91 2169 -91 
Q 1331 -91 842 396 
Q 353 884 353 1716 
Q 353 2575 817 3079 
Q 1281 3584 2069 3584 
Q 2775 3584 3186 3129 
Q 3597 2675 3597 1894 
z
M 3022 2063 
Q 3016 2534 2758 2815 
Q 2500 3097 2075 3097 
Q 1594 3097 1305 2825 
Q 1016 2553 972 2059 
L 3022 2063 
z
" transform="scale(0.015625)"/>
       <path id="DejaVuSans-66" d="M 2375 4863 
L 2375 4384 
L 1825 4384 
Q 1516 4384 1395 4259 
Q 1275 4134 1275 3809 
L 1275 3500 
L 2222 3500 
L 2222 3053 
L 1275 3053 
L 1275 0 
L 697 0 
L 697 3053 
L 147 3053 
L 147 3500 
L 697 3500 
L 697 3744 
Q 697 4328 969 4595 
Q 1241 4863 1831 4863 
L 2375 4863 
z
" transform="scale(0.015625)"/>
       <path id="DejaVuSans-6e" d="M 3513 2113 
L 3513 0 
L 2938 0 
L 2938 2094 
Q 2938 2591 2744 2837 
Q 2550 3084 2163 3084 
Q 1697 3084 1428 2787 
Q 1159 2491 1159 1978 
L 1159 0 
L 581 0 
L 581 3500 
L 1159 3500 
L 1159 2956 
Q 1366 3272 1645 3428 
Q 1925 3584 2291 3584 
Q 2894 3584 3203 3211 
Q 3513 2838 3513 2113 
z
" transform="scale(0.015625)"/>
       <path id="DejaVuSans-63" d="M 3122 3366 
L 3122 2828 
Q 2878 2963 2633 3030 
Q 2388 3097 2138 3097 
Q 1578 3097 1268 2742 
Q 959 2388 959 1747 
Q 959 1106 1268 751 
Q 1578 397 2138 397 
Q 2388 397 2633 464 
Q 2878 531 3122 666 
L 3122 134 
Q 2881 22 2623 -34 
Q 2366 -91 2075 -91 
Q 1284 -91 818 406 
Q 353 903 353 1747 
Q 353 2603 823 3093 
Q 1294 3584 2113 3584 
Q 2378 3584 2631 3529 
Q 2884 3475 3122 3366 
z
" transform="scale(0.015625)"/>
       <path id="DejaVuSans-20" transform="scale(0.015625)"/>
       <path id="DejaVuSans-77" d="M 269 3500 
L 844 3500 
L 1563 769 
L 2278 3500 
L 2956 3500 
L 3675 769 
L 4391 3500 
L 4966 3500 
L 4050 0 
L 3372 0 
L 2619 2869 
L 1863 0 
L 1184 0 
L 269 3500 
z
" transform="scale(0.015625)"/>
       <path id="DejaVuSans-69" d="M 603 3500 
L 1178 3500 
L 1178 0 
L 603 0 
L 603 3500 
z
M 603 4863 
L 1178 4863 
L 1178 4134 
L 603 4134 
L 603 4863 
z
" transform="scale(0.015625)"/>
       <path id="DejaVuSans-67" d="M 2906 1791 
Q 2906 2416 2648 2759 
Q 2391 3103 1925 3103 
Q 1463 3103 1205 2759 
Q 947 2416 947 1791 
Q 947 1169 1205 825 
Q 1463 481 1925 481 
Q 2391 481 2648 825 
Q 2906 1169 2906 1791 
z
M 3481 434 
Q 3481 -459 3084 -895 
Q 2688 -1331 1869 -1331 
Q 1566 -1331 1297 -1286 
Q 1028 -1241 775 -1147 
L 775 -588 
Q 1028 -725 1275 -790 
Q 1522 -856 1778 -856 
Q 2344 -856 2625 -561 
Q 2906 -266 2906 331 
L 2906 616 
Q 2728 306 2450 153 
Q 2172 0 1784 0 
Q 1141 0 747 490 
Q 353 981 353 1791 
Q 353 2603 747 3093 
Q 1141 3584 1784 3584 
Q 2172 3584 2450 3431 
Q 2728 3278 2906 2969 
L 2906 3500 
L 3481 3500 
L 3481 434 
z
" transform="scale(0.015625)"/>
       <path id="DejaVuSans-68" d="M 3513 2113 
L 3513 0 
L 2938 0 
L 2938 2094 
Q 2938 2591 2744 2837 
Q 2550 3084 2163 3084 
Q 1697 3084 1428 2787 
Q 1159 2491 1159 1978 
L 1159 0 
L 581 0 
L 581 4863 
L 1159 4863 
L 1159 2956 
Q 1366 3272 1645 3428 
Q 1925 3584 2291 3584 
Q 2894 3584 3203 3211 
Q 3513 2838 3513 2113 
z
" transform="scale(0.015625)"/>
       <path id="DejaVuSans-74" d="M 1172 4494 
L 1172 3500 
L 2356 3500 
L 2356 3053 
L 1172 3053 
L 1172 1153 
Q 1172 725 1289 603 
Q 1406 481 1766 481 
L 2356 481 
L 2356 0 
L 1766 0 
Q 1100 0 847 248 
Q 594 497 594 1153 
L 594 3053 
L 172 3053 
L 172 3500 
L 594 3500 
L 594 4494 
L 1172 4494 
z
" transform="scale(0.015625)"/>
       <path id="DejaVuSans-Oblique-77" d="M 544 3500 
L 1113 3500 
L 1259 684 
L 2566 3500 
L 3231 3500 
L 3425 684 
L 4666 3500 
L 5241 3500 
L 3641 0 
L 2969 0 
L 2797 2900 
L 1459 0 
L 781 0 
L 544 3500 
z
" transform="scale(0.015625)"/>
       <path id="DejaVuSans-28" d="M 1984 4856 
Q 1566 4138 1362 3434 
Q 1159 2731 1159 2009 
Q 1159 1288 1364 580 
Q 1569 -128 1984 -844 
L 1484 -844 
Q 1016 -109 783 600 
Q 550 1309 550 2009 
Q 550 2706 781 3412 
Q 1013 4119 1484 4856 
L 1984 4856 
z
" transform="scale(0.015625)"/>
       <path id="DejaVuSans-6f" d="M 1959 3097 
Q 1497 3097 1228 2736 
Q 959 2375 959 1747 
Q 959 1119 1226 758 
Q 1494 397 1959 397 
Q 2419 397 2687 759 
Q 2956 1122 2956 1747 
Q 2956 2369 2687 2733 
Q 2419 3097 1959 3097 
z
M 1959 3584 
Q 2709 3584 3137 3096 
Q 3566 2609 3566 1747 
Q 3566 888 3137 398 
Q 2709 -91 1959 -91 
Q 1206 -91 779 398 
Q 353 888 353 1747 
Q 353 2609 779 3096 
Q 1206 3584 1959 3584 
z
" transform="scale(0.015625)"/>
       <path id="DejaVuSans-4f" d="M 2522 4238 
Q 1834 4238 1429 3725 
Q 1025 3213 1025 2328 
Q 1025 1447 1429 934 
Q 1834 422 2522 422 
Q 3209 422 3611 934 
Q 4013 1447 4013 2328 
Q 4013 3213 3611 3725 
Q 3209 4238 2522 4238 
z
M 2522 4750 
Q 3503 4750 4090 4092 
Q 4678 3434 4678 2328 
Q 4678 1225 4090 567 
Q 3503 -91 2522 -91 
Q 1538 -91 948 565 
Q 359 1222 359 2328 
Q 359 3434 948 4092 
Q 1538 4750 2522 4750 
z
" transform="scale(0.015625)"/>
       <path id="DejaVuSans-62" d="M 3116 1747 
Q 3116 2381 2855 2742 
Q 2594 3103 2138 3103 
Q 1681 3103 1420 2742 
Q 1159 2381 1159 1747 
Q 1159 1113 1420 752 
Q 1681 391 2138 391 
Q 2594 391 2855 752 
Q 3116 1113 3116 1747 
z
M 1159 2969 
Q 1341 3281 1617 3432 
Q 1894 3584 2278 3584 
Q 2916 3584 3314 3078 
Q 3713 2572 3713 1747 
Q 3713 922 3314 415 
Q 2916 -91 2278 -91 
Q 1894 -91 1617 61 
Q 1341 213 1159 525 
L 1159 0 
L 581 0 
L 581 4863 
L 1159 4863 
L 1159 2969 
z
" transform="scale(0.015625)"/>
       <path id="DejaVuSans-6a" d="M 603 3500 
L 1178 3500 
L 1178 -63 
Q 1178 -731 923 -1031 
Q 669 -1331 103 -1331 
L -116 -1331 
L -116 -844 
L 38 -844 
Q 366 -844 484 -692 
Q 603 -541 603 -63 
L 603 3500 
z
M 603 4863 
L 1178 4863 
L 1178 4134 
L 603 4134 
L 603 4863 
z
" transform="scale(0.015625)"/>
       <path id="DejaVuSans-29" d="M 513 4856 
L 1013 4856 
Q 1481 4119 1714 3412 
Q 1947 2706 1947 2009 
Q 1947 1309 1714 600 
Q 1481 -109 1013 -844 
L 513 -844 
Q 928 -128 1133 580 
Q 1338 1288 1338 2009 
Q 1338 2731 1133 3434 
Q 928 4138 513 4856 
z
" transform="scale(0.015625)"/>
      </defs>
      <use xlink:href="#DejaVuSans-50" transform="translate(0 0.015625)"/>
      <use xlink:href="#DejaVuSans-72" transform="translate(60.302734 0.015625)"/>
      <use xlink:href="#DejaVuSans-65" transform="translate(101.416016 0.015625)"/>
      <use xlink:href="#DejaVuSans-66" transform="translate(162.939453 0.015625)"/>
      <use xlink:href="#DejaVuSans-65" transform="translate(198.144531 0.015625)"/>
      <use xlink:href="#DejaVuSans-72" transform="translate(259.667969 0.015625)"/>
      <use xlink:href="#DejaVuSans-65" transform="translate(300.78125 0.015625)"/>
      <use xlink:href="#DejaVuSans-6e" transform="translate(362.304688 0.015625)"/>
      <use xlink:href="#DejaVuSans-63" transform="translate(425.683594 0.015625)"/>
      <use xlink:href="#DejaVuSans-65" transform="translate(480.664062 0.015625)"/>
      <use xlink:href="#DejaVuSans-20" transform="translate(542.1875 0.015625)"/>
      <use xlink:href="#DejaVuSans-77" transform="translate(573.974609 0.015625)"/>
      <use xlink:href="#DejaVuSans-65" transform="translate(655.761719 0.015625)"/>
      <use xlink:href="#DejaVuSans-69" transform="translate(717.285156 0.015625)"/>
      <use xlink:href="#DejaVuSans-67" transform="translate(745.068359 0.015625)"/>
      <use xlink:href="#DejaVuSans-68" transform="translate(808.544922 0.015625)"/>
      <use xlink:href="#DejaVuSans-74" transform="translate(871.923828 0.015625)"/>
      <use xlink:href="#DejaVuSans-20" transform="translate(911.132812 0.015625)"/>
      <use xlink:href="#DejaVuSans-Oblique-77" transform="translate(942.919922 0.015625)"/>
      <use xlink:href="#DejaVuSans-31" transform="translate(1024.707031 -16.390625) scale(0.7)"/>
      <use xlink:href="#DejaVuSans-20" transform="translate(1071.977539 0.015625)"/>
      <use xlink:href="#DejaVuSans-28" transform="translate(1103.764648 0.015625)"/>
      <use xlink:href="#DejaVuSans-77" transform="translate(1142.77832 0.015625)"/>
      <use xlink:href="#DejaVuSans-65" transform="translate(1224.56543 0.015625)"/>
      <use xlink:href="#DejaVuSans-69" transform="translate(1286.088867 0.015625)"/>
      <use xlink:href="#DejaVuSans-67" transform="translate(1313.87207 0.015625)"/>
      <use xlink:href="#DejaVuSans-68" transform="translate(1377.348633 0.015625)"/>
      <use xlink:href="#DejaVuSans-74" transform="translate(1440.727539 0.015625)"/>
      <use xlink:href="#DejaVuSans-20" transform="translate(1479.936523 0.015625)"/>
      <use xlink:href="#DejaVuSans-6f" transform="translate(1511.723633 0.015625)"/>
      <use xlink:href="#DejaVuSans-6e" transform="translate(1572.905273 0.015625)"/>
      <use xlink:href="#DejaVuSans-20" transform="translate(1636.28418 0.015625)"/>
      <use xlink:href="#DejaVuSans-4f" transform="translate(1668.071289 0.015625)"/>
      <use xlink:href="#DejaVuSans-62" transform="translate(1746.782227 0.015625)"/>
      <use xlink:href="#DejaVuSans-6a" transform="translate(1810.258789 0.015625)"/>
      <use xlink:href="#DejaVuSans-20" transform="translate(1838.041992 0.015625)"/>
      <use xlink:href="#DejaVuSans-31" transform="translate(1869.829102 0.015625)"/>
      <use xlink:href="#DejaVuSans-29" transform="translate(1933.452148 0.015625)"/>
     </g>
    </g>
   </g>
   <g id="matplotlib.axis_2">
    <g id="ytick_1">
     <g id="line2d_14">
      <path d="M 39.330625 157.598305 
L 256.930625 157.598305 
" clip-path="url(#p2f753c3780)" style="fill: none; stroke: #b0b0b0; stroke-opacity: 0.22; stroke-width: 0.6; stroke-linecap: square"/>
     </g>
     <g id="line2d_15">
      <defs>
       <path id="m52ab54c22f" d="M 0 0 
L -3.5 0 
" style="stroke: #000000; stroke-width: 0.8"/>
      </defs>
      <g>
       <use xlink:href="#m52ab54c22f" x="39.330625" y="157.598305" style="stroke: #000000; stroke-width: 0.8"/>
      </g>
     </g>
     <g id="text_8">
      <!-- 5 -->
      <g transform="translate(26.604375 161.017602) scale(0.09 -0.09)">
       <defs>
        <path id="DejaVuSans-35" d="M 691 4666 
L 3169 4666 
L 3169 4134 
L 1269 4134 
L 1269 2991 
Q 1406 3038 1543 3061 
Q 1681 3084 1819 3084 
Q 2600 3084 3056 2656 
Q 3513 2228 3513 1497 
Q 3513 744 3044 326 
Q 2575 -91 1722 -91 
Q 1428 -91 1123 -41 
Q 819 9 494 109 
L 494 744 
Q 775 591 1075 516 
Q 1375 441 1709 441 
Q 2250 441 2565 725 
Q 2881 1009 2881 1497 
Q 2881 1984 2565 2268 
Q 2250 2553 1709 2553 
Q 1456 2553 1204 2497 
Q 953 2441 691 2322 
L 691 4666 
z
" transform="scale(0.015625)"/>
       </defs>
       <use xlink:href="#DejaVuSans-35"/>
      </g>
     </g>
    </g>
    <g id="ytick_2">
     <g id="line2d_16">
      <path d="M 39.330625 124.371382 
L 256.930625 124.371382 
" clip-path="url(#p2f753c3780)" style="fill: none; stroke: #b0b0b0; stroke-opacity: 0.22; stroke-width: 0.6; stroke-linecap: square"/>
     </g>
     <g id="line2d_17">
      <g>
       <use xlink:href="#m52ab54c22f" x="39.330625" y="124.371382" style="stroke: #000000; stroke-width: 0.8"/>
      </g>
     </g>
     <g id="text_9">
      <!-- 10 -->
      <g transform="translate(20.878125 127.790678) scale(0.09 -0.09)">
       <use xlink:href="#DejaVuSans-31"/>
       <use xlink:href="#DejaVuSans-30" transform="translate(63.623047 0)"/>
      </g>
     </g>
    </g>
    <g id="ytick_3">
     <g id="line2d_18">
      <path d="M 39.330625 91.144458 
L 256.930625 91.144458 
" clip-path="url(#p2f753c3780)" style="fill: none; stroke: #b0b0b0; stroke-opacity: 0.22; stroke-width: 0.6; stroke-linecap: square"/>
     </g>
     <g id="line2d_19">
      <g>
       <use xlink:href="#m52ab54c22f" x="39.330625" y="91.144458" style="stroke: #000000; stroke-width: 0.8"/>
      </g>
     </g>
     <g id="text_10">
      <!-- 15 -->
      <g transform="translate(20.878125 94.563755) scale(0.09 -0.09)">
       <use xlink:href="#DejaVuSans-31"/>
       <use xlink:href="#DejaVuSans-35" transform="translate(63.623047 0)"/>
      </g>
     </g>
    </g>
    <g id="ytick_4">
     <g id="line2d_20">
      <path d="M 39.330625 57.917535 
L 256.930625 57.917535 
" clip-path="url(#p2f753c3780)" style="fill: none; stroke: #b0b0b0; stroke-opacity: 0.22; stroke-width: 0.6; stroke-linecap: square"/>
     </g>
     <g id="line2d_21">
      <g>
       <use xlink:href="#m52ab54c22f" x="39.330625" y="57.917535" style="stroke: #000000; stroke-width: 0.8"/>
      </g>
     </g>
     <g id="text_11">
      <!-- 20 -->
      <g transform="translate(20.878125 61.336832) scale(0.09 -0.09)">
       <use xlink:href="#DejaVuSans-32"/>
       <use xlink:href="#DejaVuSans-30" transform="translate(63.623047 0)"/>
      </g>
     </g>
    </g>
    <g id="ytick_5">
     <g id="line2d_22">
      <path d="M 39.330625 24.690611 
L 256.930625 24.690611 
" clip-path="url(#p2f753c3780)" style="fill: none; stroke: #b0b0b0; stroke-opacity: 0.22; stroke-width: 0.6; stroke-linecap: square"/>
     </g>
     <g id="line2d_23">
      <g>
       <use xlink:href="#m52ab54c22f" x="39.330625" y="24.690611" style="stroke: #000000; stroke-width: 0.8"/>
      </g>
     </g>
     <g id="text_12">
      <!-- 25 -->
      <g transform="translate(20.878125 28.109908) scale(0.09 -0.09)">
       <use xlink:href="#DejaVuSans-32"/>
       <use xlink:href="#DejaVuSans-35" transform="translate(63.623047 0)"/>
      </g>
     </g>
    </g>
    <g id="text_13">
     <!-- Objective value -->
     <g transform="translate(14.798438 135.673756) rotate(-90) scale(0.1 -0.1)">
      <defs>
       <path id="DejaVuSans-76" d="M 191 3500 
L 800 3500 
L 1894 563 
L 2988 3500 
L 3597 3500 
L 2284 0 
L 1503 0 
L 191 3500 
z
" transform="scale(0.015625)"/>
       <path id="DejaVuSans-61" d="M 2194 1759 
Q 1497 1759 1228 1600 
Q 959 1441 959 1056 
Q 959 750 1161 570 
Q 1363 391 1709 391 
Q 2188 391 2477 730 
Q 2766 1069 2766 1631 
L 2766 1759 
L 2194 1759 
z
M 3341 1997 
L 3341 0 
L 2766 0 
L 2766 531 
Q 2569 213 2275 61 
Q 1981 -91 1556 -91 
Q 1019 -91 701 211 
Q 384 513 384 1019 
Q 384 1609 779 1909 
Q 1175 2209 1959 2209 
L 2766 2209 
L 2766 2266 
Q 2766 2663 2505 2880 
Q 2244 3097 1772 3097 
Q 1472 3097 1187 3025 
Q 903 2953 641 2809 
L 641 3341 
Q 956 3463 1253 3523 
Q 1550 3584 1831 3584 
Q 2591 3584 2966 3190 
Q 3341 2797 3341 1997 
z
" transform="scale(0.015625)"/>
       <path id="DejaVuSans-6c" d="M 603 4863 
L 1178 4863 
L 1178 0 
L 603 0 
L 603 4863 
z
" transform="scale(0.015625)"/>
       <path id="DejaVuSans-75" d="M 544 1381 
L 544 3500 
L 1119 3500 
L 1119 1403 
Q 1119 906 1312 657 
Q 1506 409 1894 409 
Q 2359 409 2629 706 
Q 2900 1003 2900 1516 
L 2900 3500 
L 3475 3500 
L 3475 0 
L 2900 0 
L 2900 538 
Q 2691 219 2414 64 
Q 2138 -91 1772 -91 
Q 1169 -91 856 284 
Q 544 659 544 1381 
z
M 1991 3584 
L 1991 3584 
z
" transform="scale(0.015625)"/>
      </defs>
      <use xlink:href="#DejaVuSans-4f"/>
      <use xlink:href="#DejaVuSans-62" transform="translate(78.710938 0)"/>
      <use xlink:href="#DejaVuSans-6a" transform="translate(142.1875 0)"/>
      <use xlink:href="#DejaVuSans-65" transform="translate(169.970703 0)"/>
      <use xlink:href="#DejaVuSans-63" transform="translate(231.494141 0)"/>
      <use xlink:href="#DejaVuSans-74" transform="translate(286.474609 0)"/>
      <use xlink:href="#DejaVuSans-69" transform="translate(325.683594 0)"/>
      <use xlink:href="#DejaVuSans-76" transform="translate(353.466797 0)"/>
      <use xlink:href="#DejaVuSans-65" transform="translate(412.646484 0)"/>
      <use xlink:href="#DejaVuSans-20" transform="translate(474.169922 0)"/>
      <use xlink:href="#DejaVuSans-76" transform="translate(505.957031 0)"/>
      <use xlink:href="#DejaVuSans-61" transform="translate(565.136719 0)"/>
      <use xlink:href="#DejaVuSans-6c" transform="translate(626.416016 0)"/>
      <use xlink:href="#DejaVuSans-75" transform="translate(654.199219 0)"/>
      <use xlink:href="#DejaVuSans-65" transform="translate(717.578125 0)"/>
     </g>
    </g>
   </g>
   <g id="patch_3">
    <path d="M 39.330625 171.115325 
L 39.330625 22.318125 
" style="fill: none; stroke: #000000; stroke-width: 0.8; stroke-linejoin: miter; stroke-linecap: square"/>
   </g>
   <g id="patch_4">
    <path d="M 39.330625 171.115325 
L 256.930625 171.115325 
" style="fill: none; stroke: #000000; stroke-width: 0.8; stroke-linejoin: miter; stroke-linecap: square"/>
   </g>
   <g id="line2d_24">
    <path d="M 43.51524 156.096899 
L 53.976779 156.096899 
L 64.438317 156.096899 
L 74.899856 156.096899 
L 85.361394 156.096899 
L 95.822933 94.324645 
L 106.284471 94.324645 
L 116.74601 73.470968 
L 127.207548 73.470968 
L 137.669087 58.72481 
L 148.130625 58.72481 
L 158.592163 58.72481 
L 169.053702 72.82402 
L 179.51524 51.927083 
L 189.976779 51.927083 
L 200.438317 51.927083 
L 210.899856 29.081634 
L 221.361394 29.081634 
L 231.822933 29.081634 
L 242.284471 29.081634 
L 252.74601 29.081634 
" clip-path="url(#p2f753c3780)" style="fill: none; stroke: #66c2a5; stroke-width: 1.8; stroke-linecap: square"/>
    <defs>
     <path id="m69f5523d49" d="M 0 2.25 
C 0.596707 2.25 1.169055 2.012926 1.59099 1.59099 
C 2.012926 1.169055 2.25 0.596707 2.25 0 
C 2.25 -0.596707 2.012926 -1.169055 1.59099 -1.59099 
C 1.169055 -2.012926 0.596707 -2.25 0 -2.25 
C -0.596707 -2.25 -1.169055 -2.012926 -1.59099 -1.59099 
C -2.012926 -1.169055 -2.25 -0.596707 -2.25 0 
C -2.25 0.596707 -2.012926 1.169055 -1.59099 1.59099 
C -1.169055 2.012926 -0.596707 2.25 0 2.25 
z
" style="stroke: #66c2a5"/>
    </defs>
    <g clip-path="url(#p2f753c3780)">
     <use xlink:href="#m69f5523d49" x="43.51524" y="156.096899" style="fill: #66c2a5; stroke: #66c2a5"/>
     <use xlink:href="#m69f5523d49" x="53.976779" y="156.096899" style="fill: #66c2a5; stroke: #66c2a5"/>
     <use xlink:href="#m69f5523d49" x="64.438317" y="156.096899" style="fill: #66c2a5; stroke: #66c2a5"/>
     <use xlink:href="#m69f5523d49" x="74.899856" y="156.096899" style="fill: #66c2a5; stroke: #66c2a5"/>
     <use xlink:href="#m69f5523d49" x="85.361394" y="156.096899" style="fill: #66c2a5; stroke: #66c2a5"/>
     <use xlink:href="#m69f5523d49" x="95.822933" y="94.324645" style="fill: #66c2a5; stroke: #66c2a5"/>
     <use xlink:href="#m69f5523d49" x="106.284471" y="94.324645" style="fill: #66c2a5; stroke: #66c2a5"/>
     <use xlink:href="#m69f5523d49" x="116.74601" y="73.470968" style="fill: #66c2a5; stroke: #66c2a5"/>
     <use xlink:href="#m69f5523d49" x="127.207548" y="73.470968" style="fill: #66c2a5; stroke: #66c2a5"/>
     <use xlink:href="#m69f5523d49" x="137.669087" y="58.72481" style="fill: #66c2a5; stroke: #66c2a5"/>
     <use xlink:href="#m69f5523d49" x="148.130625" y="58.72481" style="fill: #66c2a5; stroke: #66c2a5"/>
     <use xlink:href="#m69f5523d49" x="158.592163" y="58.72481" style="fill: #66c2a5; stroke: #66c2a5"/>
     <use xlink:href="#m69f5523d49" x="169.053702" y="72.82402" style="fill: #66c2a5; stroke: #66c2a5"/>
     <use xlink:href="#m69f5523d49" x="179.51524" y="51.927083" style="fill: #66c2a5; stroke: #66c2a5"/>
     <use xlink:href="#m69f5523d49" x="189.976779" y="51.927083" style="fill: #66c2a5; stroke: #66c2a5"/>
     <use xlink:href="#m69f5523d49" x="200.438317" y="51.927083" style="fill: #66c2a5; stroke: #66c2a5"/>
     <use xlink:href="#m69f5523d49" x="210.899856" y="29.081634" style="fill: #66c2a5; stroke: #66c2a5"/>
     <use xlink:href="#m69f5523d49" x="221.361394" y="29.081634" style="fill: #66c2a5; stroke: #66c2a5"/>
     <use xlink:href="#m69f5523d49" x="231.822933" y="29.081634" style="fill: #66c2a5; stroke: #66c2a5"/>
     <use xlink:href="#m69f5523d49" x="242.284471" y="29.081634" style="fill: #66c2a5; stroke: #66c2a5"/>
     <use xlink:href="#m69f5523d49" x="252.74601" y="29.081634" style="fill: #66c2a5; stroke: #66c2a5"/>
    </g>
   </g>
   <g id="line2d_25">
    <path d="M 43.51524 146.90883 
L 53.976779 146.90883 
L 64.438317 146.90883 
L 74.899856 146.90883 
L 85.361394 146.90883 
L 95.822933 150.239751 
L 106.284471 150.239751 
L 116.74601 147.372316 
L 127.207548 147.372316 
L 137.669087 150.901818 
L 148.130625 150.901818 
L 158.592163 150.901818 
L 169.053702 157.771649 
L 179.51524 159.576512 
L 189.976779 159.576512 
L 200.438317 159.576512 
L 210.899856 164.351816 
L 221.361394 164.351816 
L 231.822933 164.351816 
L 242.284471 164.351816 
L 252.74601 164.351816 
" clip-path="url(#p2f753c3780)" style="fill: none; stroke: #fc8d62; stroke-width: 1.8; stroke-linecap: square"/>
    <defs>
     <path id="ma6e915bc45" d="M -2.25 2.25 
L 2.25 2.25 
L 2.25 -2.25 
L -2.25 -2.25 
z
" style="stroke: #fc8d62; stroke-linejoin: miter"/>
    </defs>
    <g clip-path="url(#p2f753c3780)">
     <use xlink:href="#ma6e915bc45" x="43.51524" y="146.90883" style="fill: #fc8d62; stroke: #fc8d62; stroke-linejoin: miter"/>
     <use xlink:href="#ma6e915bc45" x="53.976779" y="146.90883" style="fill: #fc8d62; stroke: #fc8d62; stroke-linejoin: miter"/>
     <use xlink:href="#ma6e915bc45" x="64.438317" y="146.90883" style="fill: #fc8d62; stroke: #fc8d62; stroke-linejoin: miter"/>
     <use xlink:href="#ma6e915bc45" x="74.899856" y="146.90883" style="fill: #fc8d62; stroke: #fc8d62; stroke-linejoin: miter"/>
     <use xlink:href="#ma6e915bc45" x="85.361394" y="146.90883" style="fill: #fc8d62; stroke: #fc8d62; stroke-linejoin: miter"/>
     <use xlink:href="#ma6e915bc45" x="95.822933" y="150.239751" style="fill: #fc8d62; stroke: #fc8d62; stroke-linejoin: miter"/>
     <use xlink:href="#ma6e915bc45" x="106.284471" y="150.239751" style="fill: #fc8d62; stroke: #fc8d62; stroke-linejoin: miter"/>
     <use xlink:href="#ma6e915bc45" x="116.74601" y="147.372316" style="fill: #fc8d62; stroke: #fc8d62; stroke-linejoin: miter"/>
     <use xlink:href="#ma6e915bc45" x="127.207548" y="147.372316" style="fill: #fc8d62; stroke: #fc8d62; stroke-linejoin: miter"/>
     <use xlink:href="#ma6e915bc45" x="137.669087" y="150.901818" style="fill: #fc8d62; stroke: #fc8d62; stroke-linejoin: miter"/>
     <use xlink:href="#ma6e915bc45" x="148.130625" y="150.901818" style="fill: #fc8d62; stroke: #fc8d62; stroke-linejoin: miter"/>
     <use xlink:href="#ma6e915bc45" x="158.592163" y="150.901818" style="fill: #fc8d62; stroke: #fc8d62; stroke-linejoin: miter"/>
     <use xlink:href="#ma6e915bc45" x="169.053702" y="157.771649" style="fill: #fc8d62; stroke: #fc8d62; stroke-linejoin: miter"/>
     <use xlink:href="#ma6e915bc45" x="179.51524" y="159.576512" style="fill: #fc8d62; stroke: #fc8d62; stroke-linejoin: miter"/>
     <use xlink:href="#ma6e915bc45" x="189.976779" y="159.576512" style="fill: #fc8d62; stroke: #fc8d62; stroke-linejoin: miter"/>
     <use xlink:href="#ma6e915bc45" x="200.438317" y="159.576512" style="fill: #fc8d62; stroke: #fc8d62; stroke-linejoin: miter"/>
     <use xlink:href="#ma6e915bc45" x="210.899856" y="164.351816" style="fill: #fc8d62; stroke: #fc8d62; stroke-linejoin: miter"/>
     <use xlink:href="#ma6e915bc45" x="221.361394" y="164.351816" style="fill: #fc8d62; stroke: #fc8d62; stroke-linejoin: miter"/>
     <use xlink:href="#ma6e915bc45" x="231.822933" y="164.351816" style="fill: #fc8d62; stroke: #fc8d62; stroke-linejoin: miter"/>
     <use xlink:href="#ma6e915bc45" x="242.284471" y="164.351816" style="fill: #fc8d62; stroke: #fc8d62; stroke-linejoin: miter"/>
     <use xlink:href="#ma6e915bc45" x="252.74601" y="164.351816" style="fill: #fc8d62; stroke: #fc8d62; stroke-linejoin: miter"/>
    </g>
   </g>
   <g id="text_14">
    <!-- OS = 0.99 -->
    <g transform="translate(120.272031 214.42509) scale(0.1 -0.1)">
     <defs>
      <path id="DejaVuSans-Bold-4f" d="M 2719 3878 
Q 2169 3878 1866 3472 
Q 1563 3066 1563 2328 
Q 1563 1594 1866 1187 
Q 2169 781 2719 781 
Q 3272 781 3575 1187 
Q 3878 1594 3878 2328 
Q 3878 3066 3575 3472 
Q 3272 3878 2719 3878 
z
M 2719 4750 
Q 3844 4750 4481 4106 
Q 5119 3463 5119 2328 
Q 5119 1197 4481 553 
Q 3844 -91 2719 -91 
Q 1597 -91 958 553 
Q 319 1197 319 2328 
Q 319 3463 958 4106 
Q 1597 4750 2719 4750 
z
" transform="scale(0.015625)"/>
      <path id="DejaVuSans-Bold-53" d="M 3834 4519 
L 3834 3531 
Q 3450 3703 3084 3790 
Q 2719 3878 2394 3878 
Q 1963 3878 1756 3759 
Q 1550 3641 1550 3391 
Q 1550 3203 1689 3098 
Q 1828 2994 2194 2919 
L 2706 2816 
Q 3484 2659 3812 2340 
Q 4141 2022 4141 1434 
Q 4141 663 3683 286 
Q 3225 -91 2284 -91 
Q 1841 -91 1394 -6 
Q 947 78 500 244 
L 500 1259 
Q 947 1022 1364 901 
Q 1781 781 2169 781 
Q 2563 781 2772 912 
Q 2981 1044 2981 1288 
Q 2981 1506 2839 1625 
Q 2697 1744 2272 1838 
L 1806 1941 
Q 1106 2091 782 2419 
Q 459 2747 459 3303 
Q 459 4000 909 4375 
Q 1359 4750 2203 4750 
Q 2588 4750 2994 4692 
Q 3400 4634 3834 4519 
z
" transform="scale(0.015625)"/>
      <path id="DejaVuSans-Bold-20" transform="scale(0.015625)"/>
      <path id="DejaVuSans-Bold-3d" d="M 678 3084 
L 4684 3084 
L 4684 2350 
L 678 2350 
L 678 3084 
z
M 678 1663 
L 4684 1663 
L 4684 922 
L 678 922 
L 678 1663 
z
" transform="scale(0.015625)"/>
      <path id="DejaVuSans-Bold-30" d="M 2944 2338 
Q 2944 3213 2780 3570 
Q 2616 3928 2228 3928 
Q 1841 3928 1675 3570 
Q 1509 3213 1509 2338 
Q 1509 1453 1675 1090 
Q 1841 728 2228 728 
Q 2613 728 2778 1090 
Q 2944 1453 2944 2338 
z
M 4147 2328 
Q 4147 1169 3647 539 
Q 3147 -91 2228 -91 
Q 1306 -91 806 539 
Q 306 1169 306 2328 
Q 306 3491 806 4120 
Q 1306 4750 2228 4750 
Q 3147 4750 3647 4120 
Q 4147 3491 4147 2328 
z
" transform="scale(0.015625)"/>
      <path id="DejaVuSans-Bold-2e" d="M 653 1209 
L 1778 1209 
L 1778 0 
L 653 0 
L 653 1209 
z
" transform="scale(0.015625)"/>
      <path id="DejaVuSans-Bold-39" d="M 641 103 
L 641 966 
Q 928 831 1190 764 
Q 1453 697 1709 697 
Q 2247 697 2547 995 
Q 2847 1294 2900 1881 
Q 2688 1725 2447 1647 
Q 2206 1569 1925 1569 
Q 1209 1569 770 1986 
Q 331 2403 331 3084 
Q 331 3838 820 4291 
Q 1309 4744 2131 4744 
Q 3044 4744 3544 4128 
Q 4044 3513 4044 2388 
Q 4044 1231 3459 570 
Q 2875 -91 1856 -91 
Q 1528 -91 1228 -42 
Q 928 6 641 103 
z
M 2125 2350 
Q 2441 2350 2600 2554 
Q 2759 2759 2759 3169 
Q 2759 3575 2600 3781 
Q 2441 3988 2125 3988 
Q 1809 3988 1650 3781 
Q 1491 3575 1491 3169 
Q 1491 2759 1650 2554 
Q 1809 2350 2125 2350 
z
" transform="scale(0.015625)"/>
     </defs>
     <use xlink:href="#DejaVuSans-Bold-4f"/>
     <use xlink:href="#DejaVuSans-Bold-53" transform="translate(85.009766 0)"/>
     <use xlink:href="#DejaVuSans-Bold-20" transform="translate(157.03125 0)"/>
     <use xlink:href="#DejaVuSans-Bold-3d" transform="translate(191.845703 0)"/>
     <use xlink:href="#DejaVuSans-Bold-20" transform="translate(275.634766 0)"/>
     <use xlink:href="#DejaVuSans-Bold-30" transform="translate(310.449219 0)"/>
     <use xlink:href="#DejaVuSans-Bold-2e" transform="translate(380.029297 0)"/>
     <use xlink:href="#DejaVuSans-Bold-39" transform="translate(418.017578 0)"/>
     <use xlink:href="#DejaVuSans-Bold-39" transform="translate(487.597656 0)"/>
    </g>
   </g>
   <g id="text_15">
    <!-- Ordering Score -->
    <g transform="translate(39.330625 16.318125) scale(0.12 -0.12)">
     <defs>
      <path id="DejaVuSans-Bold-72" d="M 3138 2547 
Q 2991 2616 2845 2648 
Q 2700 2681 2553 2681 
Q 2122 2681 1889 2404 
Q 1656 2128 1656 1613 
L 1656 0 
L 538 0 
L 538 3500 
L 1656 3500 
L 1656 2925 
Q 1872 3269 2151 3426 
Q 2431 3584 2822 3584 
Q 2878 3584 2943 3579 
Q 3009 3575 3134 3559 
L 3138 2547 
z
" transform="scale(0.015625)"/>
      <path id="DejaVuSans-Bold-64" d="M 2919 2988 
L 2919 4863 
L 4044 4863 
L 4044 0 
L 2919 0 
L 2919 506 
Q 2688 197 2409 53 
Q 2131 -91 1766 -91 
Q 1119 -91 703 423 
Q 288 938 288 1747 
Q 288 2556 703 3070 
Q 1119 3584 1766 3584 
Q 2128 3584 2408 3439 
Q 2688 3294 2919 2988 
z
M 2181 722 
Q 2541 722 2730 984 
Q 2919 1247 2919 1747 
Q 2919 2247 2730 2509 
Q 2541 2772 2181 2772 
Q 1825 2772 1636 2509 
Q 1447 2247 1447 1747 
Q 1447 1247 1636 984 
Q 1825 722 2181 722 
z
" transform="scale(0.015625)"/>
      <path id="DejaVuSans-Bold-65" d="M 4031 1759 
L 4031 1441 
L 1416 1441 
Q 1456 1047 1700 850 
Q 1944 653 2381 653 
Q 2734 653 3104 758 
Q 3475 863 3866 1075 
L 3866 213 
Q 3469 63 3072 -14 
Q 2675 -91 2278 -91 
Q 1328 -91 801 392 
Q 275 875 275 1747 
Q 275 2603 792 3093 
Q 1309 3584 2216 3584 
Q 3041 3584 3536 3087 
Q 4031 2591 4031 1759 
z
M 2881 2131 
Q 2881 2450 2695 2645 
Q 2509 2841 2209 2841 
Q 1884 2841 1681 2658 
Q 1478 2475 1428 2131 
L 2881 2131 
z
" transform="scale(0.015625)"/>
      <path id="DejaVuSans-Bold-69" d="M 538 3500 
L 1656 3500 
L 1656 0 
L 538 0 
L 538 3500 
z
M 538 4863 
L 1656 4863 
L 1656 3950 
L 538 3950 
L 538 4863 
z
" transform="scale(0.015625)"/>
      <path id="DejaVuSans-Bold-6e" d="M 4056 2131 
L 4056 0 
L 2931 0 
L 2931 347 
L 2931 1631 
Q 2931 2084 2911 2256 
Q 2891 2428 2841 2509 
Q 2775 2619 2662 2680 
Q 2550 2741 2406 2741 
Q 2056 2741 1856 2470 
Q 1656 2200 1656 1722 
L 1656 0 
L 538 0 
L 538 3500 
L 1656 3500 
L 1656 2988 
Q 1909 3294 2193 3439 
Q 2478 3584 2822 3584 
Q 3428 3584 3742 3212 
Q 4056 2841 4056 2131 
z
" transform="scale(0.015625)"/>
      <path id="DejaVuSans-Bold-67" d="M 2919 594 
Q 2688 288 2409 144 
Q 2131 0 1766 0 
Q 1125 0 706 504 
Q 288 1009 288 1791 
Q 288 2575 706 3076 
Q 1125 3578 1766 3578 
Q 2131 3578 2409 3434 
Q 2688 3291 2919 2981 
L 2919 3500 
L 4044 3500 
L 4044 353 
Q 4044 -491 3511 -936 
Q 2978 -1381 1966 -1381 
Q 1638 -1381 1331 -1331 
Q 1025 -1281 716 -1178 
L 716 -306 
Q 1009 -475 1290 -558 
Q 1572 -641 1856 -641 
Q 2406 -641 2662 -400 
Q 2919 -159 2919 353 
L 2919 594 
z
M 2181 2772 
Q 1834 2772 1640 2515 
Q 1447 2259 1447 1791 
Q 1447 1309 1634 1061 
Q 1822 813 2181 813 
Q 2531 813 2725 1069 
Q 2919 1325 2919 1791 
Q 2919 2259 2725 2515 
Q 2531 2772 2181 2772 
z
" transform="scale(0.015625)"/>
      <path id="DejaVuSans-Bold-63" d="M 3366 3391 
L 3366 2478 
Q 3138 2634 2908 2709 
Q 2678 2784 2431 2784 
Q 1963 2784 1702 2511 
Q 1441 2238 1441 1747 
Q 1441 1256 1702 982 
Q 1963 709 2431 709 
Q 2694 709 2930 787 
Q 3166 866 3366 1019 
L 3366 103 
Q 3103 6 2833 -42 
Q 2563 -91 2291 -91 
Q 1344 -91 809 395 
Q 275 881 275 1747 
Q 275 2613 809 3098 
Q 1344 3584 2291 3584 
Q 2566 3584 2833 3536 
Q 3100 3488 3366 3391 
z
" transform="scale(0.015625)"/>
      <path id="DejaVuSans-Bold-6f" d="M 2203 2784 
Q 1831 2784 1636 2517 
Q 1441 2250 1441 1747 
Q 1441 1244 1636 976 
Q 1831 709 2203 709 
Q 2569 709 2762 976 
Q 2956 1244 2956 1747 
Q 2956 2250 2762 2517 
Q 2569 2784 2203 2784 
z
M 2203 3584 
Q 3106 3584 3614 3096 
Q 4122 2609 4122 1747 
Q 4122 884 3614 396 
Q 3106 -91 2203 -91 
Q 1297 -91 786 396 
Q 275 884 275 1747 
Q 275 2609 786 3096 
Q 1297 3584 2203 3584 
z
" transform="scale(0.015625)"/>
     </defs>
     <use xlink:href="#DejaVuSans-Bold-4f"/>
     <use xlink:href="#DejaVuSans-Bold-72" transform="translate(85.009766 0)"/>
     <use xlink:href="#DejaVuSans-Bold-64" transform="translate(134.326172 0)"/>
     <use xlink:href="#DejaVuSans-Bold-65" transform="translate(205.908203 0)"/>
     <use xlink:href="#DejaVuSans-Bold-72" transform="translate(273.730469 0)"/>
     <use xlink:href="#DejaVuSans-Bold-69" transform="translate(323.046875 0)"/>
     <use xlink:href="#DejaVuSans-Bold-6e" transform="translate(357.324219 0)"/>
     <use xlink:href="#DejaVuSans-Bold-67" transform="translate(428.515625 0)"/>
     <use xlink:href="#DejaVuSans-Bold-20" transform="translate(500.097656 0)"/>
     <use xlink:href="#DejaVuSans-Bold-53" transform="translate(534.912109 0)"/>
     <use xlink:href="#DejaVuSans-Bold-63" transform="translate(606.933594 0)"/>
     <use xlink:href="#DejaVuSans-Bold-6f" transform="translate(666.210938 0)"/>
     <use xlink:href="#DejaVuSans-Bold-72" transform="translate(734.912109 0)"/>
     <use xlink:href="#DejaVuSans-Bold-65" transform="translate(784.228516 0)"/>
    </g>
   </g>
   <g id="legend_1">
    <g id="patch_5">
     <path d="M 30.163906 240.982779 
L 266.097344 240.982779 
Q 267.797344 240.982779 267.797344 239.282779 
L 267.797344 227.656373 
Q 267.797344 225.956373 266.097344 225.956373 
L 30.163906 225.956373 
Q 28.463906 225.956373 28.463906 227.656373 
L 28.463906 239.282779 
Q 28.463906 240.982779 30.163906 240.982779 
z
" style="fill: #ffffff; opacity: 0.88; stroke: #cccccc; stroke-linejoin: miter"/>
    </g>
    <g id="line2d_26">
     <path d="M 31.863906 232.840045 
L 40.363906 232.840045 
L 48.863906 232.840045 
" style="fill: none; stroke: #66c2a5; stroke-width: 1.8; stroke-linecap: square"/>
     <g>
      <use xlink:href="#m69f5523d49" x="40.363906" y="232.840045" style="fill: #66c2a5; stroke: #66c2a5"/>
     </g>
    </g>
    <g id="text_16">
     <!-- Obj 1  (↑, ρ = 0.98) -->
     <g transform="translate(55.663906 235.815045) scale(0.085 -0.085)">
      <defs>
       <path id="DejaVuSans-2191" d="M 2541 4688 
L 2822 4688 
L 4047 3456 
L 3672 3081 
L 2947 3813 
L 2947 0 
L 2416 0 
L 2416 3813 
L 1684 3081 
L 1309 3456 
L 2541 4688 
z
" transform="scale(0.015625)"/>
       <path id="DejaVuSans-2c" d="M 750 794 
L 1409 794 
L 1409 256 
L 897 -744 
L 494 -744 
L 750 256 
L 750 794 
z
" transform="scale(0.015625)"/>
       <path id="DejaVuSans-3c1" d="M 863 2875 
Q 1053 3194 1525 3475 
Q 1709 3584 2278 3584 
Q 2916 3584 3314 3078 
Q 3713 2572 3713 1747 
Q 3713 922 3314 415 
Q 2916 -91 2278 -91 
Q 1894 -91 1617 61 
Q 1341 213 1159 525 
L 1159 -1331 
L 581 -1331 
L 581 1716 
Q 581 2438 863 2875 
z
M 3116 1747 
Q 3116 2381 2855 2742 
Q 2594 3103 2138 3103 
Q 1681 3103 1420 2742 
Q 1159 2381 1159 1747 
Q 1159 1113 1420 752 
Q 1681 391 2138 391 
Q 2594 391 2855 752 
Q 3116 1113 3116 1747 
z
" transform="scale(0.015625)"/>
       <path id="DejaVuSans-3d" d="M 678 2906 
L 4684 2906 
L 4684 2381 
L 678 2381 
L 678 2906 
z
M 678 1631 
L 4684 1631 
L 4684 1100 
L 678 1100 
L 678 1631 
z
" transform="scale(0.015625)"/>
       <path id="DejaVuSans-39" d="M 703 97 
L 703 672 
Q 941 559 1184 500 
Q 1428 441 1663 441 
Q 2288 441 2617 861 
Q 2947 1281 2994 2138 
Q 2813 1869 2534 1725 
Q 2256 1581 1919 1581 
Q 1219 1581 811 2004 
Q 403 2428 403 3163 
Q 403 3881 828 4315 
Q 1253 4750 1959 4750 
Q 2769 4750 3195 4129 
Q 3622 3509 3622 2328 
Q 3622 1225 3098 567 
Q 2575 -91 1691 -91 
Q 1453 -91 1209 -44 
Q 966 3 703 97 
z
M 1959 2075 
Q 2384 2075 2632 2365 
Q 2881 2656 2881 3163 
Q 2881 3666 2632 3958 
Q 2384 4250 1959 4250 
Q 1534 4250 1286 3958 
Q 1038 3666 1038 3163 
Q 1038 2656 1286 2365 
Q 1534 2075 1959 2075 
z
" transform="scale(0.015625)"/>
      </defs>
      <use xlink:href="#DejaVuSans-4f"/>
      <use xlink:href="#DejaVuSans-62" transform="translate(78.710938 0)"/>
      <use xlink:href="#DejaVuSans-6a" transform="translate(142.1875 0)"/>
      <use xlink:href="#DejaVuSans-20" transform="translate(169.970703 0)"/>
      <use xlink:href="#DejaVuSans-31" transform="translate(201.757812 0)"/>
      <use xlink:href="#DejaVuSans-20" transform="translate(265.380859 0)"/>
      <use xlink:href="#DejaVuSans-20" transform="translate(297.167969 0)"/>
      <use xlink:href="#DejaVuSans-28" transform="translate(328.955078 0)"/>
      <use xlink:href="#DejaVuSans-2191" transform="translate(367.96875 0)"/>
      <use xlink:href="#DejaVuSans-2c" transform="translate(451.757812 0)"/>
      <use xlink:href="#DejaVuSans-20" transform="translate(483.544922 0)"/>
      <use xlink:href="#DejaVuSans-3c1" transform="translate(515.332031 0)"/>
      <use xlink:href="#DejaVuSans-20" transform="translate(578.808594 0)"/>
      <use xlink:href="#DejaVuSans-3d" transform="translate(610.595703 0)"/>
      <use xlink:href="#DejaVuSans-20" transform="translate(694.384766 0)"/>
      <use xlink:href="#DejaVuSans-30" transform="translate(726.171875 0)"/>
      <use xlink:href="#DejaVuSans-2e" transform="translate(789.794922 0)"/>
      <use xlink:href="#DejaVuSans-39" transform="translate(821.582031 0)"/>
      <use xlink:href="#DejaVuSans-38" transform="translate(885.205078 0)"/>
      <use xlink:href="#DejaVuSans-29" transform="translate(948.828125 0)"/>
     </g>
    </g>
    <g id="line2d_27">
     <path d="M 156.630625 232.840045 
L 165.130625 232.840045 
L 173.630625 232.840045 
" style="fill: none; stroke: #fc8d62; stroke-width: 1.8; stroke-linecap: square"/>
     <g>
      <use xlink:href="#ma6e915bc45" x="165.130625" y="232.840045" style="fill: #fc8d62; stroke: #fc8d62; stroke-linejoin: miter"/>
     </g>
    </g>
    <g id="text_17">
     <!-- Obj 2  (↓, ρ = 0.97) -->
     <g transform="translate(180.430625 235.815045) scale(0.085 -0.085)">
      <defs>
       <path id="DejaVuSans-2193" d="M 2822 -22 
L 2541 -22 
L 1309 1209 
L 1684 1584 
L 2416 853 
L 2416 4666 
L 2947 4666 
L 2947 853 
L 3672 1584 
L 4047 1209 
L 2822 -22 
z
" transform="scale(0.015625)"/>
       <path id="DejaVuSans-37" d="M 525 4666 
L 3525 4666 
L 3525 4397 
L 1831 0 
L 1172 0 
L 2766 4134 
L 525 4134 
L 525 4666 
z
" transform="scale(0.015625)"/>
      </defs>
      <use xlink:href="#DejaVuSans-4f"/>
      <use xlink:href="#DejaVuSans-62" transform="translate(78.710938 0)"/>
      <use xlink:href="#DejaVuSans-6a" transform="translate(142.1875 0)"/>
      <use xlink:href="#DejaVuSans-20" transform="translate(169.970703 0)"/>
      <use xlink:href="#DejaVuSans-32" transform="translate(201.757812 0)"/>
      <use xlink:href="#DejaVuSans-20" transform="translate(265.380859 0)"/>
      <use xlink:href="#DejaVuSans-20" transform="translate(297.167969 0)"/>
      <use xlink:href="#DejaVuSans-28" transform="translate(328.955078 0)"/>
      <use xlink:href="#DejaVuSans-2193" transform="translate(367.96875 0)"/>
      <use xlink:href="#DejaVuSans-2c" transform="translate(451.757812 0)"/>
      <use xlink:href="#DejaVuSans-20" transform="translate(483.544922 0)"/>
      <use xlink:href="#DejaVuSans-3c1" transform="translate(515.332031 0)"/>
      <use xlink:href="#DejaVuSans-20" transform="translate(578.808594 0)"/>
      <use xlink:href="#DejaVuSans-3d" transform="translate(610.595703 0)"/>
      <use xlink:href="#DejaVuSans-20" transform="translate(694.384766 0)"/>
      <use xlink:href="#DejaVuSans-30" transform="translate(726.171875 0)"/>
      <use xlink:href="#DejaVuSans-2e" transform="translate(789.794922 0)"/>
      <use xlink:href="#DejaVuSans-39" transform="translate(821.582031 0)"/>
      <use xlink:href="#DejaVuSans-37" transform="translate(885.205078 0)"/>
      <use xlink:href="#DejaVuSans-29" transform="translate(948.828125 0)"/>
     </g>
    </g>
   </g>
  </g>
 </g>
 <defs>
  <clipPath id="p2f753c3780">
   <rect x="39.330625" y="22.318125" width="217.6" height="148.7972"/>
  </clipPath>
 </defs>
</svg>
